<?xml version="1.0" standalone="no"?>
<!DOCTYPE svg PUBLIC "-//W3C//DTD SVG 20010904//EN"
 "http://www.w3.org/TR/2001/REC-SVG-20010904/DTD/svg10.dtd">
<svg version="1.0" xmlns="http://www.w3.org/2000/svg"
 width="200.000000pt" height="200.000000pt" viewBox="0 0 200.000000 200.000000"
 preserveAspectRatio="xMidYMid meet">

<g transform="translate(0.000000,200.000000) scale(0.100000,-0.100000)"
fill="#000000" stroke="none">
<path d="M1439 1552 c-13 -11 -47 -22 -76 -25 -28 -3 -61 -12 -72 -19 -17 -10
-25 -10 -41 0 -24 14 -96 16 -105 2 -3 -5 -18 -10 -33 -10 -77 0 -125 -79 -62
-103 34 -13 39 -27 12 -34 -24 -6 -52 -54 -52 -87 0 -14 -4 -26 -9 -26 -4 0
-11 -21 -15 -47 -4 -33 -2 -53 9 -70 29 -44 66 -19 85 60 12 47 30 64 30 28 0
-11 11 -33 24 -48 23 -26 26 -27 42 -11 12 12 18 35 19 82 1 73 4 77 59 106
36 18 41 18 68 4 24 -12 29 -20 23 -37 -4 -12 -8 -29 -9 -37 -6 -31 -42 -96
-63 -113 -16 -13 -23 -29 -23 -52 0 -71 88 -86 119 -20 8 16 25 41 38 55 12
13 23 30 23 36 0 6 30 30 66 53 54 35 72 42 107 39 38 -3 43 -7 73 -57 28 -46
32 -63 32 -116 l0 -62 -47 -34 c-25 -19 -76 -54 -113 -79 -63 -42 -79 -62 -60
-74 5 -3 39 15 76 40 37 25 70 43 73 41 2 -3 -30 -28 -71 -57 -42 -29 -73 -57
-70 -62 6 -10 13 -6 96 65 32 27 56 53 53 57 -8 12 23 32 37 24 7 -4 10 -3 5
1 -9 10 21 45 40 45 26 0 12 -20 -62 -86 -41 -37 -75 -73 -75 -80 0 -8 -6 -11
-13 -8 -20 7 -43 -24 -29 -38 9 -9 18 -6 36 11 21 20 24 20 30 5 3 -9 2 -22
-4 -29 -7 -8 -3 -18 11 -34 21 -23 18 -44 -3 -23 -20 20 -32 13 -13 -8 10 -11
13 -20 8 -20 -20 0 -60 26 -86 55 -21 24 -26 26 -27 13 0 -10 9 -27 20 -38 29
-29 25 -67 -11 -101 l-31 -29 30 0 c22 0 40 -10 62 -32 l31 -33 35 39 c18 22
37 37 40 34 3 -3 -38 -57 -90 -119 -53 -63 -96 -117 -96 -121 0 -5 8 -8 18 -8
11 0 38 23 62 52 141 166 175 217 253 378 82 171 99 210 92 210 -2 0 -16 -5
-30 -10 -37 -14 -99 4 -124 37 -50 63 -7 159 74 168 38 4 39 4 7 -4 -66 -17
-100 -71 -81 -128 34 -103 189 -69 189 42 0 13 -22 65 -49 115 -30 54 -49 101
-48 118 2 24 -2 27 -32 30 -22 2 -51 18 -80 42 -33 27 -59 39 -90 43 -25 3
-40 2 -34 -1 8 -5 9 -13 3 -22 -13 -20 -13 -60 0 -60 6 0 10 11 10 25 0 28 30
46 62 37 14 -3 16 -10 12 -31 -10 -38 -13 -41 -40 -41 -14 0 -22 -4 -19 -10 4
-6 -7 -10 -26 -10 l-31 0 7 65 c6 56 4 65 -9 65 -13 0 -16 -13 -16 -75 l0 -75
33 0 c17 0 45 7 61 15 16 9 31 13 33 11 11 -10 -59 -36 -97 -36 l-40 0 0 90 0
91 38 -6 c20 -3 48 -8 62 -11 19 -4 22 -3 14 6 -14 14 -76 29 -129 31 -36 1
-37 2 -15 10 18 6 14 7 -17 3 -28 -4 -43 -2 -43 5 0 6 19 11 46 11 25 0 54 5
66 11 11 6 23 7 26 3 4 -4 1 -9 -5 -11 -24 -8 -13 -21 22 -27 23 -5 60 -29
110 -72 54 -48 80 -65 97 -62 22 4 21 6 -17 43 -23 22 -76 64 -120 93 -78 51
-80 52 -156 52 -59 0 -82 -4 -100 -18z m33 -52 c-53 -13 -49 -20 11 -20 l57 0
-1 -42 c0 -24 -3 -37 -6 -31 -2 7 -4 15 -3 19 1 4 -4 11 -12 15 -10 7 -10 9 0
9 6 0 12 3 12 8 0 4 -29 8 -63 10 -57 3 -66 1 -88 -22 -13 -14 -30 -26 -37
-26 -18 0 -10 -24 9 -28 8 -1 19 8 24 20 12 28 58 51 85 43 51 -16 67 -78 30
-115 -36 -36 -120 -17 -120 27 0 7 -11 13 -25 13 -24 0 -25 3 -25 55 l0 54 38
6 c20 4 44 8 52 10 8 1 33 3 55 3 l40 0 -33 -8z m-248 -22 c15 -24 -13 -53
-43 -43 -23 7 -28 34 -9 53 16 16 38 12 52 -10z m-94 -32 c0 -26 -26 -38 -60
-29 -30 8 -24 27 13 45 38 18 47 15 47 -16z m153 14 c3 -13 0 -20 -9 -20 -8 0
-14 9 -14 20 0 11 4 20 9 20 5 0 11 -9 14 -20z m-6 -36 c-3 -3 -12 -4 -19 -1
-8 3 -5 6 6 6 11 1 17 -2 13 -5z m-113 -45 c-9 -10 -21 -16 -27 -12 -5 3 -7 1
-3 -5 3 -6 2 -13 -3 -16 -21 -13 -22 17 -1 39 27 29 61 23 34 -6z m553 9 c-3
-8 -6 -5 -6 6 -1 11 2 17 5 13 3 -3 4 -12 1 -19z m-468 -1 c13 5 13 3 4 -7
-13 -15 -43 -7 -43 12 0 9 3 9 11 1 6 -6 19 -9 28 -6z m-74 -57 c-21 -22 -31
-27 -36 -18 -11 17 41 72 55 58 7 -7 0 -20 -19 -40z m625 4 c0 -9 -37 15 -51
33 -10 12 -5 11 19 -6 17 -12 32 -24 32 -27z m30 16 c0 -5 -4 -10 -10 -10 -5
0 -10 5 -10 10 0 6 5 10 10 10 6 0 10 -4 10 -10z m-732 -33 c4 -21 -26 -67
-44 -67 -19 0 -18 40 2 68 17 25 37 25 42 -1z m625 2 c-9 -9 -5 -22 14 -50 14
-22 23 -42 20 -45 -3 -3 -17 13 -31 35 -22 34 -24 44 -14 61 7 10 14 17 17 14
3 -2 0 -9 -6 -15z m67 -34 c23 -38 47 -39 29 -2 -9 21 -9 21 5 4 16 -21 11
-47 -9 -47 -12 0 -55 58 -55 74 0 13 9 4 30 -29z m-387 -5 c-2 -22 -1 -23 8
-7 14 24 33 22 19 -2 -14 -28 -12 -36 5 -21 8 7 15 19 15 26 0 8 5 14 11 14 5
0 7 -4 4 -10 -12 -20 14 -10 28 11 8 11 18 16 21 11 7 -12 -11 -27 -47 -41
-15 -6 -27 -15 -27 -21 0 -17 -23 -11 -53 13 -20 16 -26 27 -21 40 10 27 39
16 37 -13z m312 -27 c14 -21 25 -44 25 -53 0 -8 -14 5 -30 30 -28 43 -36 60
-25 60 2 0 16 -17 30 -37z m-560 -16 c10 -30 10 -37 -1 -37 -7 0 -16 10 -19
23 -4 12 -9 30 -12 41 -10 35 19 11 32 -27z m12 11 c-3 -7 -5 -2 -5 12 0 14 2
19 5 13 2 -7 2 -19 0 -25z m214 -18 c21 -12 24 -37 8 -60 -8 -12 -9 -9 -4 10
l6 25 -19 -24 c-18 -22 -42 -22 -42 -1 0 15 19 60 25 60 4 0 15 -5 26 -10z
m-328 -34 c-3 -36 -23 -63 -34 -44 -3 7 -4 28 -2 46 7 43 39 41 36 -2z m802
24 c4 -6 -6 -10 -24 -10 -17 0 -43 -11 -63 -27 -33 -28 -33 -28 -17 -3 26 40
89 65 104 40z m42 -72 c44 -41 17 -118 -42 -118 -31 0 -75 41 -75 70 0 28 43
70 71 70 13 0 33 -10 46 -22z m-558 -12 c23 -28 -17 -68 -45 -45 -15 12 -19
41 -7 52 11 12 40 8 52 -7z m441 -160 c0 -3 -7 -12 -16 -20 -21 -22 4 -21 28
0 14 14 21 14 33 4 13 -11 13 -15 -1 -41 -8 -16 -19 -29 -25 -29 -6 0 -7 -4
-4 -10 3 -5 2 -10 -3 -10 -12 0 -45 -50 -45 -67 0 -7 -4 -10 -8 -7 -4 2 -9 -1
-11 -8 -5 -13 -39 4 -71 37 -15 14 -13 18 21 50 21 20 29 32 18 29 -10 -4 1
11 25 34 40 37 59 50 59 38z m19 -153 c-24 -68 -96 -188 -115 -191 -10 -2 -36
-20 -56 -40 -21 -20 -38 -32 -38 -27 1 18 58 73 80 77 15 2 34 28 69 93 25 50
50 96 54 103 14 21 16 13 6 -15z m-110 -80 c-7 -10 -26 -33 -43 -50 -44 -48
-19 -40 32 10 25 23 43 36 40 28 -2 -8 -37 -44 -78 -80 -52 -47 -68 -57 -55
-36 l19 30 -27 -24 c-15 -14 -27 -21 -27 -16 0 10 133 153 144 154 5 1 3 -7
-5 -16z m-99 -63 c0 -5 -4 -10 -10 -10 -5 0 -10 5 -10 10 0 6 5 10 10 10 6 0
10 -4 10 -10z"/>
<path d="M1330 1465 c0 -8 8 -15 19 -15 10 0 24 7 31 15 11 13 8 15 -19 15
-21 0 -31 -5 -31 -15z"/>
<path d="M1420 1443 c-40 -14 -53 -69 -22 -96 58 -53 137 28 82 83 -20 20 -33
23 -60 13z m50 -28 l23 -25 -25 0 c-14 0 -31 -6 -37 -14 -10 -12 -7 -15 16
-18 24 -4 26 -5 9 -13 -26 -12 -50 6 -54 41 -3 18 2 32 14 41 24 17 27 17 54
-12z"/>
<path d="M1410 1389 c0 -5 5 -7 10 -4 6 3 10 8 10 11 0 2 -4 4 -10 4 -5 0 -10
-5 -10 -11z"/>
<path d="M1182 1464 c4 -21 22 -23 26 -1 2 10 -3 17 -13 17 -10 0 -15 -6 -13
-16z"/>
<path d="M1381 1284 c0 -11 3 -14 6 -6 3 7 2 16 -1 19 -3 4 -6 -2 -5 -13z"/>
<path d="M1030 1210 c0 -5 5 -10 11 -10 5 0 7 5 4 10 -3 6 -8 10 -11 10 -2 0
-4 -4 -4 -10z"/>
<path d="M1031 1174 c0 -11 3 -14 6 -6 3 7 2 16 -1 19 -3 4 -6 -2 -5 -13z"/>
<path d="M1822 1144 c-32 -22 -30 -76 4 -94 57 -31 111 43 65 89 -25 25 -39
26 -69 5z m54 -12 c32 -21 18 -72 -20 -72 -35 0 -52 25 -38 55 11 25 36 32 58
17z"/>
<path d="M1830 1115 c-11 -13 -11 -19 3 -32 21 -21 49 -9 45 19 -4 28 -30 35
-48 13z"/>
<path d="M1295 1131 c-8 -15 3 -31 21 -31 9 0 14 7 12 17 -4 20 -24 28 -33 14z"/>
<path d="M1785 919 c-11 -16 -1 -19 13 -3 7 8 8 14 3 14 -5 0 -13 -5 -16 -11z"/>
<path d="M1740 910 c0 -5 5 -10 10 -10 6 0 10 5 10 10 0 6 -4 10 -10 10 -5 0
-10 -4 -10 -10z"/>
<path d="M1699 863 c-13 -14 -17 -22 -9 -17 8 5 19 9 24 9 5 0 10 8 12 18 3
22 2 22 -27 -10z"/>
<path d="M1720 835 c-13 -14 -21 -27 -18 -31 3 -3 16 9 28 25 26 37 22 40 -10
6z"/>
<path d="M156 1464 c-9 -24 -9 -24 38 -24 l45 0 -5 -37 c-3 -21 -12 -77 -20
-126 -19 -117 -19 -117 14 -117 l29 0 17 128 c10 70 20 133 22 140 2 7 20 12
43 12 34 0 51 12 51 36 0 2 -51 4 -114 4 -95 0 -115 -3 -120 -16z"/>
<path d="M423 1437 c-2 -23 -11 -95 -21 -160 l-19 -118 101 3 c87 3 101 5 104
21 3 15 -5 17 -68 17 -70 0 -72 1 -66 23 3 12 6 34 6 50 0 26 1 27 58 27 53 0
60 2 70 25 l12 25 -66 0 c-64 0 -66 1 -60 23 3 12 6 32 6 45 0 20 5 22 58 22
53 0 82 11 82 32 0 4 -44 8 -97 8 l-98 0 -2 -43z"/>
<path d="M755 1471 c3 -6 -7 -34 -23 -63 -16 -29 -52 -97 -81 -150 l-53 -98
29 0 c24 0 31 7 46 45 l19 45 68 0 67 0 9 -42 c8 -39 12 -43 42 -46 17 -2 32
0 32 5 0 4 -16 59 -35 121 -19 62 -39 130 -45 152 -10 37 -13 40 -46 40 -19 0
-33 -4 -29 -9z m55 -173 c0 -5 -20 -8 -45 -8 -25 0 -45 2 -45 5 0 3 12 27 27
54 l28 49 17 -47 c10 -25 18 -49 18 -53z"/>
<path d="M1651 1406 c-14 -17 -7 -36 14 -36 22 0 29 20 13 36 -13 13 -16 13
-27 0z m29 -10 c0 -3 -4 -8 -10 -11 -5 -3 -10 -1 -10 4 0 6 5 11 10 11 6 0 10
-2 10 -4z"/>
<path d="M1164 1049 c-10 -17 13 -36 27 -22 12 12 4 33 -11 33 -5 0 -12 -5
-16 -11z"/>
<path d="M1100 1040 c0 -5 5 -10 10 -10 6 0 10 5 10 10 0 6 -4 10 -10 10 -5 0
-10 -4 -10 -10z"/>
<path d="M1050 1001 c0 -10 9 -21 21 -24 16 -4 20 -12 17 -39 l-3 -33 -70 -8
c-109 -12 -133 -22 -141 -63 -5 -28 -11 -34 -31 -34 -62 0 -121 -77 -107 -138
17 -71 86 -131 152 -132 12 0 22 -4 22 -9 0 -20 87 -104 134 -129 42 -22 64
-27 126 -27 65 0 82 4 128 29 66 37 117 92 151 165 23 50 26 68 26 172 0 80
-4 121 -13 131 -16 20 -117 38 -210 38 -39 0 -73 4 -77 9 -3 6 8 20 24 32 30
22 32 39 5 39 -8 0 -14 -6 -14 -14 0 -21 -21 -31 -31 -15 -5 8 -9 26 -9 42 0
32 -13 35 -33 7 l-14 -20 -18 20 c-23 25 -35 25 -35 1z m127 -153 c8 -9 12
-22 8 -27 -11 -18 -23 -12 -29 15 -13 49 -16 18 -5 -40 7 -31 9 -59 5 -63 -3
-4 -19 6 -34 20 -20 19 -39 27 -65 27 l-37 0 6 -39 c4 -24 2 -41 -5 -45 -6 -4
-11 0 -11 8 0 9 -4 16 -10 16 -5 0 -10 -11 -10 -23 0 -19 8 -27 40 -37 47 -16
56 -25 65 -65 l6 -30 -23 26 c-13 14 -28 35 -35 45 -12 18 -12 18 -6 0 6 -19
6 -19 -23 0 -50 36 -60 37 -25 4 30 -29 31 -31 10 -25 -35 11 -13 -7 24 -20
18 -6 31 -16 30 -23 -2 -6 3 -9 11 -6 7 3 32 -11 55 -30 l42 -35 -48 -4 c-44
-3 -43 -4 14 -5 55 -2 62 0 57 16 -4 9 10 -1 29 -23 l35 -40 -51 -3 c-71 -4
-86 1 -139 50 -54 50 -114 164 -97 184 6 7 9 21 6 31 -4 14 -5 13 -6 -4 -2
-34 -21 -28 -21 7 0 17 -5 30 -11 30 -14 0 -3 -133 11 -138 6 -2 10 -9 10 -16
0 -30 34 -76 85 -117 30 -24 52 -45 50 -47 -2 -3 -24 7 -49 22 -54 32 -98 92
-120 166 -16 55 -22 176 -8 196 5 8 22 9 57 3 82 -13 145 -11 145 5 0 10 -19
16 -67 21 -106 10 -120 21 -38 30 49 6 70 4 73 -4 8 -23 32 -11 32 17 0 15 3
37 6 50 6 21 8 19 26 -20 10 -23 26 -50 35 -60z m188 13 c50 -10 32 -17 -59
-26 -65 -6 -96 3 -96 26 0 11 100 11 155 0z m-151 -56 c6 -17 -8 -60 -22 -69
-15 -9 -24 42 -12 64 13 24 26 26 34 5z m224 -87 c-5 -115 -28 -176 -87 -232
-42 -40 -39 -27 8 35 45 59 60 104 68 201 l6 71 -48 -6 c-26 -4 -59 -7 -72 -7
-14 0 -21 -4 -18 -10 3 -5 31 -10 61 -10 34 0 53 -4 49 -10 -3 -5 -17 -10 -31
-10 -14 0 -22 -4 -19 -10 3 -5 15 -10 26 -10 28 0 20 -18 -25 -54 -31 -25 -39
-28 -46 -16 -6 8 -10 26 -10 40 0 14 -9 43 -19 65 l-18 40 81 11 c45 6 85 12
90 12 4 1 6 -44 4 -100z m-188 19 c0 -24 -39 -79 -51 -72 -12 8 -11 52 2 60 5
4 15 19 20 33 8 21 12 23 19 12 6 -8 10 -23 10 -33z m-386 -44 c3 -38 9 -78
12 -90 10 -35 -22 -29 -62 11 -41 41 -46 87 -12 123 39 42 54 31 62 -44z m216
57 c0 -13 -11 -13 -30 0 -12 8 -11 10 8 10 12 0 22 -4 22 -10z m58 -27 c33
-31 48 -73 27 -73 -19 0 -65 58 -65 81 0 25 3 24 38 -8z m132 -35 c0 -18 -10
-49 -21 -68 -22 -35 -22 -35 -32 -12 -8 18 -6 28 10 50 10 15 22 35 26 45 10
27 17 20 17 -15z m-126 -59 c16 -33 20 -46 10 -38 -26 21 -55 89 -39 89 3 0
16 -23 29 -51z m226 2 c-13 -25 -13 -34 0 -26 18 11 -11 -51 -41 -88 -33 -40
-57 -50 -39 -17 6 11 18 20 26 20 8 0 12 5 9 10 -3 6 1 13 9 16 9 3 14 10 11
14 -3 5 -1 11 5 15 17 10 11 25 -7 18 -12 -5 -14 -3 -8 7 5 9 4 11 -3 6 -7 -4
-12 -17 -12 -29 0 -18 -2 -19 -10 -7 -8 12 -10 9 -10 -12 0 -28 -14 -45 -25
-28 -9 15 13 52 53 87 42 37 58 42 42 14z m-180 -22 c0 -6 -4 -7 -10 -4 -5 3
-10 11 -10 16 0 6 5 7 10 4 6 -3 10 -11 10 -16z m-51 -50 c21 -28 21 -30 3
-20 -11 6 -22 20 -25 31 -7 26 -5 26 22 -11z"/>
<path d="M920 781 c0 -12 5 -21 10 -21 6 0 10 6 10 14 0 8 -4 18 -10 21 -5 3
-10 -3 -10 -14z"/>
<path d="M962 765 c0 -16 2 -22 5 -12 2 9 2 23 0 30 -3 6 -5 -1 -5 -18z"/>
<path d="M990 760 c0 -11 5 -20 10 -20 6 0 10 9 10 20 0 11 -4 20 -10 20 -5 0
-10 -9 -10 -20z"/>
<path d="M1025 541 c6 -5 24 -13 40 -17 39 -9 30 0 -15 15 -19 6 -30 7 -25 2z"/>
<path d="M1330 715 c13 -14 28 -25 33 -25 6 0 0 11 -13 25 -13 14 -28 25 -33
25 -6 0 0 -11 13 -25z"/>
<path d="M1320 674 c0 -8 5 -12 10 -9 6 4 8 11 5 16 -9 14 -15 11 -15 -7z"/>
<path d="M1246 1001 c-4 -5 -2 -12 3 -15 5 -4 12 -2 15 3 4 5 2 12 -3 15 -5 4
-12 2 -15 -3z"/>
<path d="M1535 770 c15 -16 32 -27 37 -24 13 8 9 24 -6 24 -7 0 -19 7 -26 15
-7 8 -17 15 -23 15 -6 0 2 -13 18 -30z"/>
<path d="M457 727 c-4 -10 -7 -33 -6 -50 l1 -32 9 33 c12 40 8 79 -4 49z"/>
<path d="M179 688 l4 -43 11 35 c5 19 15 38 20 42 6 4 0 8 -14 8 -24 0 -25 -3
-21 -42z"/>
<path d="M1498 680 c-4 -40 5 -53 16 -24 9 23 7 52 -3 58 -5 3 -11 -12 -13
-34z"/>
<path d="M241 696 c-8 -10 -9 -16 -1 -21 5 -3 10 -11 10 -16 0 -6 -5 -7 -12
-3 -7 4 -8 3 -4 -4 4 -6 13 -9 21 -5 17 6 21 33 5 33 -5 0 -10 5 -10 11 0 5 5
7 10 4 6 -3 10 -1 10 4 0 15 -15 14 -29 -3z"/>
<path d="M288 685 c-6 -30 -3 -43 8 -33 3 4 4 19 2 35 l-3 28 -7 -30z"/>
<path d="M318 679 c-3 -16 -1 -29 3 -29 4 0 9 9 11 20 2 12 7 19 13 18 5 -2 8
-11 7 -20 -2 -10 2 -18 8 -18 6 0 10 12 8 28 -4 40 -44 40 -50 1z"/>
<path d="M393 698 c-4 -7 -8 -28 -10 -45 -1 -26 2 -33 17 -33 27 0 35 18 16
39 -19 20 -21 41 -5 41 6 0 9 -7 5 -15 -3 -8 -2 -15 3 -15 5 0 11 9 14 20 4
15 0 20 -13 20 -11 0 -22 -6 -27 -12z m22 -58 c3 -5 -1 -10 -9 -10 -9 0 -16 5
-16 10 0 6 4 10 9 10 6 0 13 -4 16 -10z"/>
<path d="M484 680 c1 -39 16 -39 16 0 0 17 -4 30 -9 30 -4 0 -8 -13 -7 -30z"/>
<path d="M518 685 c-4 -16 -2 -34 3 -39 14 -15 18 -3 10 34 l-7 35 -6 -30z"/>
<path d="M557 686 c-4 -15 -6 -31 -2 -34 10 -10 16 6 13 35 l-3 28 -8 -29z"/>
<path d="M598 699 c-22 -12 -24 -45 -4 -52 10 -4 14 1 13 18 -1 13 3 24 8 24
6 0 10 -9 9 -19 0 -11 3 -20 8 -20 12 0 6 53 -7 56 -5 2 -18 -1 -27 -7z"/>
<path d="M166 588 c-13 -51 -8 -68 22 -67 24 1 25 2 5 7 -23 7 -20 25 7 35 12
4 11 6 -2 6 -26 1 -22 29 5 34 20 4 19 4 -4 6 -20 1 -28 -5 -33 -21z"/>
<path d="M337 597 c-4 -10 -7 -32 -7 -48 0 -24 4 -29 24 -29 16 0 27 7 31 20
7 23 -1 40 -20 40 -7 0 -15 8 -17 18 -3 16 -4 16 -11 -1z m33 -47 c0 -11 -7
-20 -15 -20 -17 0 -18 2 -9 24 9 23 24 20 24 -4z"/>
<path d="M520 597 c0 -7 -10 -17 -22 -22 -33 -14 -30 -49 3 -53 25 -3 27 0 31
42 2 25 0 46 -4 46 -5 0 -8 -6 -8 -13z m-6 -35 c2 -4 1 -14 -4 -21 -10 -17
-31 -5 -23 14 6 16 19 20 27 7z"/>
<path d="M692 599 c-1 -9 -13 -20 -27 -23 -18 -5 -25 -13 -25 -31 0 -20 5 -25
25 -25 30 0 38 15 32 62 -2 18 -5 26 -5 17z m-12 -49 c0 -11 -4 -20 -9 -20
-14 0 -23 18 -16 30 10 17 25 11 25 -10z"/>
<path d="M231 548 c0 -28 2 -30 9 -13 12 28 12 45 0 45 -5 0 -10 -15 -9 -32z"/>
<path d="M260 550 c0 -16 5 -30 10 -30 6 0 10 14 10 30 0 17 -4 30 -10 30 -5
0 -10 -13 -10 -30z"/>
<path d="M299 548 c4 -32 5 -32 11 -8 7 26 4 40 -9 40 -4 0 -5 -15 -2 -32z"/>
<path d="M413 573 c-7 -2 -13 -16 -13 -29 0 -22 4 -25 28 -22 21 2 27 8 27 28
0 24 -17 34 -42 23z m33 -14 c10 -17 -13 -36 -27 -22 -12 12 -4 33 11 33 5 0
12 -5 16 -11z"/>
<path d="M547 556 c-5 -15 -6 -31 -3 -34 8 -8 18 25 14 45 -3 13 -6 10 -11
-11z"/>
<path d="M580 566 c-17 -22 -5 -46 22 -45 22 0 22 1 3 8 -19 8 -19 8 3 15 13
4 21 13 19 19 -6 18 -32 20 -47 3z m30 -6 c0 -5 -4 -10 -10 -10 -5 0 -10 5
-10 10 0 6 5 10 10 10 6 0 10 -4 10 -10z"/>
<path d="M1475 570 c-4 -6 8 -10 28 -10 23 0 41 -8 57 -25 13 -14 26 -23 28
-20 3 3 -7 19 -23 35 -29 30 -77 41 -90 20z"/>
<path d="M1467 544 c-16 -16 -5 -24 34 -24 28 0 39 4 37 13 -5 13 -60 22 -71
11z"/>
<path d="M1440 500 c0 -6 28 -10 65 -10 37 0 65 4 65 10 0 6 -28 10 -65 10
-37 0 -65 -4 -65 -10z"/>
<path d="M175 443 c-26 -51 -29 -61 -12 -40 17 21 46 22 53 2 4 -8 10 -15 14
-15 5 0 2 20 -7 45 -8 25 -18 45 -22 45 -4 0 -16 -17 -26 -37z m30 -3 c3 -5
-1 -10 -10 -10 -9 0 -13 5 -10 10 3 6 8 10 10 10 2 0 7 -4 10 -10z"/>
<path d="M258 460 c-4 -14 -8 -36 -7 -50 l0 -25 10 25 c5 13 9 36 7 50 l-3 25
-7 -25z"/>
<path d="M326 464 c-3 -9 -6 -29 -6 -45 0 -25 4 -29 28 -28 23 0 24 1 7 8 -16
6 -19 16 -17 44 4 39 -2 48 -12 21z"/>
<path d="M459 450 c-1 -16 -2 -36 -3 -42 -1 -7 10 -13 24 -13 20 0 26 6 28 28
3 22 -1 27 -17 27 -14 0 -19 5 -15 15 4 8 1 15 -5 15 -6 0 -12 -13 -12 -30z
m36 -30 c0 -7 -6 -15 -12 -17 -8 -3 -13 4 -13 17 0 13 5 20 13 18 6 -3 12 -11
12 -18z"/>
<path d="M1420 470 c0 -6 26 -10 59 -10 33 0 63 5 66 10 4 6 -18 10 -59 10
-37 0 -66 -4 -66 -10z"/>
<path d="M724 460 c-16 -16 -5 -70 14 -70 12 0 13 3 4 12 -7 7 -8 17 -2 28 11
20 -2 44 -16 30z"/>
<path d="M384 435 c-10 -25 4 -47 28 -43 17 2 24 11 26 31 3 23 0 27 -23 27
-14 0 -28 -7 -31 -15z m40 -3 c2 -4 1 -14 -4 -22 -7 -11 -12 -12 -21 -3 -6 6
-8 16 -5 22 8 13 23 14 30 3z"/>
<path d="M530 435 c-16 -19 -6 -45 18 -45 25 0 46 25 38 45 -7 19 -40 19 -56
0z m40 -16 c0 -24 -23 -21 -28 4 -2 10 3 17 12 17 10 0 16 -9 16 -21z"/>
<path d="M601 418 c1 -21 3 -26 6 -13 3 11 12 26 21 33 14 11 13 12 -6 12 -18
0 -22 -5 -21 -32z"/>
<path d="M651 436 c-17 -20 -3 -46 25 -46 20 0 24 5 24 30 0 23 -5 30 -19 30
-10 0 -24 -6 -30 -14z m39 -17 c0 -24 -23 -21 -28 4 -2 10 3 17 12 17 10 0 16
-9 16 -21z"/>
<path d="M767 443 c-4 -3 -7 -17 -7 -30 0 -21 4 -24 28 -21 21 2 28 9 30 31 3
23 0 27 -21 27 -13 0 -27 -3 -30 -7z m39 -14 c10 -17 -13 -36 -27 -22 -12 12
-4 33 11 33 5 0 12 -5 16 -11z"/>
<path d="M836 428 c-8 -33 -7 -40 4 -33 6 3 10 15 10 25 0 10 6 21 13 23 7 4
6 6 -4 6 -9 1 -19 -9 -23 -21z"/>
<path d="M885 405 c0 -25 1 -45 2 -45 4 0 43 79 43 87 0 4 -7 -2 -15 -13 -13
-17 -14 -17 -15 -1 0 9 -3 17 -8 17 -4 0 -7 -20 -7 -45z"/>
<path d="M1395 440 c-3 -6 5 -10 19 -10 14 0 28 5 31 10 3 6 -5 10 -19 10 -14
0 -28 -4 -31 -10z"/>
<path d="M1440 415 c-30 -31 -40 -35 -77 -33 -24 1 -49 -4 -55 -10 -9 -9 1
-12 43 -12 52 0 57 2 99 45 24 25 40 45 34 45 -6 0 -25 -16 -44 -35z"/>
<path d="M1476 408 c-33 -40 -40 -58 -17 -44 18 12 73 86 63 86 -6 0 -26 -19
-46 -42z"/>
<path d="M1355 410 c-4 -6 7 -10 24 -10 17 0 31 5 31 10 0 6 -11 10 -24 10
-14 0 -28 -4 -31 -10z"/>
</g>
</svg>
